REM DIRINDEX 1\2,1\4,1\5,1\6,1\7,1\3\8,1\3\9,1\3\10
REM DIRNAME folder01,folder02,folder03,folder04,folder05,folder06,folder07,folder08,folder09,folder10
TITLE ""
FILE "DB4500_5th_3B_04.mp3" MP3
  TRACK 01 AUDIO
    TITLE "8:cjc113_1943"
    INDEX 01 00:00:00
  TRACK 02 AUDIO
    TITLE "0:"
    INDEX 01 00:01:22
  TRACK 03 AUDIO
    TITLE "9:cjc113_1944"
    INDEX 01 00:01:42
  TRACK 04 AUDIO
    TITLE "0:"
    INDEX 01 00:02:59
  TRACK 05 AUDIO
    TITLE "10:cjc113_1945"
    INDEX 01 00:03:04
  TRACK 06 AUDIO
    TITLE "0:"
    INDEX 01 00:06:31
  TRACK 07 AUDIO
    TITLE "8:cjc113_1946"
    INDEX 01 00:07:02
  TRACK 08 AUDIO
    TITLE "0:"
    INDEX 01 00:08:26
  TRACK 09 AUDIO
    TITLE "9:cjc113_1947"
    INDEX 01 00:08:44
  TRACK 10 AUDIO
    TITLE "0:"
    INDEX 01 00:09:63
  TRACK 11 AUDIO
    TITLE "10:cjc113_1948"
    INDEX 01 00:10:06
  TRACK 12 AUDIO
    TITLE "0:"
    INDEX 01 00:12:60
  TRACK 13 AUDIO
    TITLE "8:cjc113_1949"
    INDEX 01 00:13:26
  TRACK 14 AUDIO
    TITLE "0:"
    INDEX 01 00:14:45
  TRACK 15 AUDIO
    TITLE "9:cjc113_1950"
    INDEX 01 00:14:66
  TRACK 16 AUDIO
    TITLE "0:"
    INDEX 01 00:16:24
  TRACK 17 AUDIO
    TITLE "10:cjc113_1951"
    INDEX 01 00:16:44
  TRACK 18 AUDIO
    TITLE "0:"
    INDEX 01 00:20:57
  TRACK 19 AUDIO
    TITLE "8:cjc113_1952"
    INDEX 01 00:21:23
  TRACK 20 AUDIO
    TITLE "0:"
    INDEX 01 00:22:60
  TRACK 21 AUDIO
    TITLE "9:cjc113_1953"
    INDEX 01 00:23:03
  TRACK 22 AUDIO
    TITLE "0:"
    INDEX 01 00:24:39
  TRACK 23 AUDIO
    TITLE "10:cjc113_1954"
    INDEX 01 00:24:59
  TRACK 24 AUDIO
    TITLE "0:"
    INDEX 01 00:28:57
  TRACK 25 AUDIO
    TITLE "8:cjc113_1955"
    INDEX 01 00:29:23
  TRACK 26 AUDIO
    TITLE "0:"
    INDEX 01 00:30:46
  TRACK 27 AUDIO
    TITLE "9:cjc113_1956"
    INDEX 01 00:30:65
  TRACK 28 AUDIO
    TITLE "0:"
    INDEX 01 00:32:07
  TRACK 29 AUDIO
    TITLE "10:cjc113_1957"
    INDEX 01 00:32:25
  TRACK 30 AUDIO
    TITLE "0:"
    INDEX 01 00:35:53
  TRACK 31 AUDIO
    TITLE "8:cjc113_1958"
    INDEX 01 00:36:21
  TRACK 32 AUDIO
    TITLE "0:"
    INDEX 01 00:37:36
  TRACK 33 AUDIO
    TITLE "9:cjc113_1959"
    INDEX 01 00:37:56
  TRACK 34 AUDIO
    TITLE "0:"
    INDEX 01 00:39:27
  TRACK 35 AUDIO
    TITLE "10:cjc113_1960"
    INDEX 01 00:39:45
  TRACK 36 AUDIO
    TITLE "0:"
    INDEX 01 00:43:35
  TRACK 37 AUDIO
    TITLE "8:cjc113_1961"
    INDEX 01 00:44:03
  TRACK 38 AUDIO
    TITLE "0:"
    INDEX 01 00:45:20
  TRACK 39 AUDIO
    TITLE "9:cjc113_1962"
    INDEX 01 00:45:43
  TRACK 40 AUDIO
    TITLE "0:"
    INDEX 01 00:46:64
  TRACK 41 AUDIO
    TITLE "10:cjc113_1963"
    INDEX 01 00:47:09
  TRACK 42 AUDIO
    TITLE "0:"
    INDEX 01 00:51:50
  TRACK 43 AUDIO
    TITLE "8:cjc113_1964"
    INDEX 01 00:52:18
  TRACK 44 AUDIO
    TITLE "0:"
    INDEX 01 00:53:41
  TRACK 45 AUDIO
    TITLE "9:cjc113_1965"
    INDEX 01 00:53:60
  TRACK 46 AUDIO
    TITLE "0:"
    INDEX 01 00:55:16
  TRACK 47 AUDIO
    TITLE "10:cjc113_1966"
    INDEX 01 00:55:36
  TRACK 48 AUDIO
    TITLE "0:"
    INDEX 01 00:58:22
  TRACK 49 AUDIO
    TITLE "8:cjc113_1967"
    INDEX 01 00:58:66
  TRACK 50 AUDIO
    TITLE "0:"
    INDEX 01 01:00:13
  TRACK 51 AUDIO
    TITLE "9:cjc113_1968"
    INDEX 01 01:00:33
  TRACK 52 AUDIO
    TITLE "0:"
    INDEX 01 01:02:61
  TRACK 53 AUDIO
    TITLE "10:cjc113_1969"
    INDEX 01 01:03:06
  TRACK 54 AUDIO
    TITLE "0:"
    INDEX 01 01:07:00
  TRACK 55 AUDIO
    TITLE "8:cjc113_1970"
    INDEX 01 01:07:45
  TRACK 56 AUDIO
    TITLE "0:"
    INDEX 01 01:08:54
  TRACK 57 AUDIO
    TITLE "9:cjc113_1971"
    INDEX 01 01:08:74
  TRACK 58 AUDIO
    TITLE "0:"
    INDEX 01 01:11:37
  TRACK 59 AUDIO
    TITLE "10:cjc113_1972"
    INDEX 01 01:11:58
  TRACK 60 AUDIO
    TITLE "0:"
    INDEX 01 01:15:46
  TRACK 61 AUDIO
    TITLE "8:cjc113_1973"
    INDEX 01 01:16:12
  TRACK 62 AUDIO
    TITLE "0:"
    INDEX 01 01:17:18
  TRACK 63 AUDIO
    TITLE "9:cjc113_1974"
    INDEX 01 01:17:37
  TRACK 64 AUDIO
    TITLE "0:"
    INDEX 01 01:18:37
  TRACK 65 AUDIO
    TITLE "10:cjc113_1975"
    INDEX 01 01:18:58
  TRACK 66 AUDIO
    TITLE "0:"
    INDEX 01 01:22:46
  TRACK 67 AUDIO
    TITLE "8:cjc113_1976"
    INDEX 01 01:23:16
  TRACK 68 AUDIO
    TITLE "0:"
    INDEX 01 01:24:20
  TRACK 69 AUDIO
    TITLE "9:cjc113_1977"
    INDEX 01 01:24:43
  TRACK 70 AUDIO
    TITLE "0:"
    INDEX 01 01:25:43
  TRACK 71 AUDIO
    TITLE "10:cjc113_1978"
    INDEX 01 01:25:66
  TRACK 72 AUDIO
    TITLE "0:"
    INDEX 01 01:28:72
